<?xml version="1.0" encoding="UTF-8" standalone="no"?>
<!DOCTYPE svg PUBLIC "-//W3C//DTD SVG 1.1//EN"
 "http://www.w3.org/Graphics/SVG/1.1/DTD/svg11.dtd">
<!-- Generated by graphviz version 2.50.0 (0)
 -->
<!-- Pages: 1 -->
<svg width="3349pt" height="116pt"
 viewBox="0.00 0.00 3348.50 116.00" xmlns="http://www.w3.org/2000/svg" xmlns:xlink="http://www.w3.org/1999/xlink">
<g id="graph0" class="graph" transform="scale(1 1) rotate(0) translate(4 112)">
<polygon fill="white" stroke="transparent" points="-4,4 -4,-112 3344.5,-112 3344.5,4 -4,4"/>
<!-- [root] var.allowed_ips -->
<g id="node1" class="node">
<title>[root] var.allowed_ips</title>
<polygon fill="none" stroke="black" points="119,-36 0,-36 0,0 125,0 125,-30 119,-36"/>
<polyline fill="none" stroke="black" points="119,-36 119,-30 "/>
<polyline fill="none" stroke="black" points="125,-30 119,-30 "/>
<text text-anchor="middle" x="62.5" y="-14.3" font-family="Times,serif" font-size="14.00">var.allowed_ips</text>
</g>
<!-- [root] var.aws_region -->
<g id="node2" class="node">
<title>[root] var.aws_region</title>
<polygon fill="none" stroke="black" points="260,-36 143,-36 143,0 266,0 266,-30 260,-36"/>
<polyline fill="none" stroke="black" points="260,-36 260,-30 "/>
<polyline fill="none" stroke="black" points="266,-30 260,-30 "/>
<text text-anchor="middle" x="204.5" y="-14.3" font-family="Times,serif" font-size="14.00">var.aws_region</text>
</g>
<!-- [root] var.desired_instances -->
<g id="node3" class="node">
<title>[root] var.desired_instances</title>
<polygon fill="none" stroke="black" points="448.5,-36 284.5,-36 284.5,0 454.5,0 454.5,-30 448.5,-36"/>
<polyline fill="none" stroke="black" points="448.5,-36 448.5,-30 "/>
<polyline fill="none" stroke="black" points="454.5,-30 448.5,-30 "/>
<text text-anchor="middle" x="369.5" y="-14.3" font-family="Times,serif" font-size="14.00">var.desired_instances</text>
</g>
<!-- [root] var.disable_wireguard_dns -->
<g id="node4" class="node">
<title>[root] var.disable_wireguard_dns</title>
<polygon fill="none" stroke="black" points="672.5,-36 472.5,-36 472.5,0 678.5,0 678.5,-30 672.5,-36"/>
<polyline fill="none" stroke="black" points="672.5,-36 672.5,-30 "/>
<polyline fill="none" stroke="black" points="678.5,-30 672.5,-30 "/>
<text text-anchor="middle" x="575.5" y="-14.3" font-family="Times,serif" font-size="14.00">var.disable_wireguard_dns</text>
</g>
<!-- [root] var.docker_image -->
<g id="node5" class="node">
<title>[root] var.docker_image</title>
<polygon fill="none" stroke="black" points="832,-36 697,-36 697,0 838,0 838,-30 832,-36"/>
<polyline fill="none" stroke="black" points="832,-36 832,-30 "/>
<polyline fill="none" stroke="black" points="838,-30 832,-30 "/>
<text text-anchor="middle" x="767.5" y="-14.3" font-family="Times,serif" font-size="14.00">var.docker_image</text>
</g>
<!-- [root] var.enable_cloudwatch_metrics -->
<g id="node6" class="node">
<title>[root] var.enable_cloudwatch_metrics</title>
<polygon fill="none" stroke="black" points="1089,-36 856,-36 856,0 1095,0 1095,-30 1089,-36"/>
<polyline fill="none" stroke="black" points="1089,-36 1089,-30 "/>
<polyline fill="none" stroke="black" points="1095,-30 1089,-30 "/>
<text text-anchor="middle" x="975.5" y="-14.3" font-family="Times,serif" font-size="14.00">var.enable_cloudwatch_metrics</text>
</g>
<!-- [root] var.enable_ipv4_nat -->
<g id="node7" class="node">
<title>[root] var.enable_ipv4_nat</title>
<polygon fill="none" stroke="black" points="1265.5,-36 1113.5,-36 1113.5,0 1271.5,0 1271.5,-30 1265.5,-36"/>
<polyline fill="none" stroke="black" points="1265.5,-36 1265.5,-30 "/>
<polyline fill="none" stroke="black" points="1271.5,-30 1265.5,-30 "/>
<text text-anchor="middle" x="1192.5" y="-14.3" font-family="Times,serif" font-size="14.00">var.enable_ipv4_nat</text>
</g>
<!-- [root] var.enable_ipv6_nat -->
<g id="node8" class="node">
<title>[root] var.enable_ipv6_nat</title>
<polygon fill="none" stroke="black" points="1441.5,-36 1289.5,-36 1289.5,0 1447.5,0 1447.5,-30 1441.5,-36"/>
<polyline fill="none" stroke="black" points="1441.5,-36 1441.5,-30 "/>
<polyline fill="none" stroke="black" points="1447.5,-30 1441.5,-30 "/>
<text text-anchor="middle" x="1368.5" y="-14.3" font-family="Times,serif" font-size="14.00">var.enable_ipv6_nat</text>
</g>
<!-- [root] var.instance_type -->
<g id="node9" class="node">
<title>[root] var.instance_type</title>
<polygon fill="none" stroke="black" points="1601,-36 1466,-36 1466,0 1607,0 1607,-30 1601,-36"/>
<polyline fill="none" stroke="black" points="1601,-36 1601,-30 "/>
<polyline fill="none" stroke="black" points="1607,-30 1601,-30 "/>
<text text-anchor="middle" x="1536.5" y="-14.3" font-family="Times,serif" font-size="14.00">var.instance_type</text>
</g>
<!-- [root] var.internal_url -->
<g id="node10" class="node">
<title>[root] var.internal_url</title>
<polygon fill="none" stroke="black" points="1745.5,-36 1625.5,-36 1625.5,0 1751.5,0 1751.5,-30 1745.5,-36"/>
<polyline fill="none" stroke="black" points="1745.5,-36 1745.5,-30 "/>
<polyline fill="none" stroke="black" points="1751.5,-30 1745.5,-30 "/>
<text text-anchor="middle" x="1688.5" y="-14.3" font-family="Times,serif" font-size="14.00">var.internal_url</text>
</g>
<!-- [root] var.ipv4_gateway -->
<g id="node11" class="node">
<title>[root] var.ipv4_gateway</title>
<polygon fill="none" stroke="black" points="1903.5,-36 1769.5,-36 1769.5,0 1909.5,0 1909.5,-30 1903.5,-36"/>
<polyline fill="none" stroke="black" points="1903.5,-36 1903.5,-30 "/>
<polyline fill="none" stroke="black" points="1909.5,-30 1903.5,-30 "/>
<text text-anchor="middle" x="1839.5" y="-14.3" font-family="Times,serif" font-size="14.00">var.ipv4_gateway</text>
</g>
<!-- [root] var.ipv6_gateway -->
<g id="node12" class="node">
<title>[root] var.ipv6_gateway</title>
<polygon fill="none" stroke="black" points="2061.5,-36 1927.5,-36 1927.5,0 2067.5,0 2067.5,-30 2061.5,-36"/>
<polyline fill="none" stroke="black" points="2061.5,-36 2061.5,-30 "/>
<polyline fill="none" stroke="black" points="2067.5,-30 2061.5,-30 "/>
<text text-anchor="middle" x="1997.5" y="-14.3" font-family="Times,serif" font-size="14.00">var.ipv6_gateway</text>
</g>
<!-- [root] var.is_ecr_docker_image -->
<g id="node13" class="node">
<title>[root] var.is_ecr_docker_image</title>
<polygon fill="none" stroke="black" points="2269,-36 2086,-36 2086,0 2275,0 2275,-30 2269,-36"/>
<polyline fill="none" stroke="black" points="2269,-36 2269,-30 "/>
<polyline fill="none" stroke="black" points="2275,-30 2269,-30 "/>
<text text-anchor="middle" x="2180.5" y="-14.3" font-family="Times,serif" font-size="14.00">var.is_ecr_docker_image</text>
</g>
<!-- [root] var.name -->
<g id="node14" class="node">
<title>[root] var.name</title>
<polygon fill="none" stroke="black" points="2369.5,-36 2293.5,-36 2293.5,0 2375.5,0 2375.5,-30 2369.5,-36"/>
<polyline fill="none" stroke="black" points="2369.5,-36 2369.5,-30 "/>
<polyline fill="none" stroke="black" points="2375.5,-30 2369.5,-30 "/>
<text text-anchor="middle" x="2334.5" y="-14.3" font-family="Times,serif" font-size="14.00">var.name</text>
</g>
<!-- [root] var.ssh_key_bucket -->
<g id="node15" class="node">
<title>[root] var.ssh_key_bucket</title>
<polygon fill="none" stroke="black" points="2541,-36 2394,-36 2394,0 2547,0 2547,-30 2541,-36"/>
<polyline fill="none" stroke="black" points="2541,-36 2541,-30 "/>
<polyline fill="none" stroke="black" points="2547,-30 2541,-30 "/>
<text text-anchor="middle" x="2470.5" y="-14.3" font-family="Times,serif" font-size="14.00">var.ssh_key_bucket</text>
</g>
<!-- [root] var.subnet_ids -->
<g id="node16" class="node">
<title>[root] var.subnet_ids</title>
<polygon fill="none" stroke="black" points="2678,-36 2565,-36 2565,0 2684,0 2684,-30 2678,-36"/>
<polyline fill="none" stroke="black" points="2678,-36 2678,-30 "/>
<polyline fill="none" stroke="black" points="2684,-30 2678,-30 "/>
<text text-anchor="middle" x="2624.5" y="-14.3" font-family="Times,serif" font-size="14.00">var.subnet_ids</text>
</g>
<!-- [root] var.tags -->
<g id="node17" class="node">
<title>[root] var.tags</title>
<polygon fill="none" stroke="black" points="2770.5,-36 2702.5,-36 2702.5,0 2776.5,0 2776.5,-30 2770.5,-36"/>
<polyline fill="none" stroke="black" points="2770.5,-36 2770.5,-30 "/>
<polyline fill="none" stroke="black" points="2776.5,-30 2770.5,-30 "/>
<text text-anchor="middle" x="2739.5" y="-14.3" font-family="Times,serif" font-size="14.00">var.tags</text>
</g>
<!-- [root] var.volume_size -->
<g id="node18" class="node">
<title>[root] var.volume_size</title>
<polygon fill="none" stroke="black" points="2918,-36 2795,-36 2795,0 2924,0 2924,-30 2918,-36"/>
<polyline fill="none" stroke="black" points="2918,-36 2918,-30 "/>
<polyline fill="none" stroke="black" points="2924,-30 2918,-30 "/>
<text text-anchor="middle" x="2859.5" y="-14.3" font-family="Times,serif" font-size="14.00">var.volume_size</text>
</g>
<!-- [root] var.vpn_endpoint_url -->
<g id="node19" class="node">
<title>[root] var.vpn_endpoint_url</title>
<polygon fill="none" stroke="black" points="3102.5,-36 2942.5,-36 2942.5,0 3108.5,0 3108.5,-30 3102.5,-36"/>
<polyline fill="none" stroke="black" points="3102.5,-36 3102.5,-30 "/>
<polyline fill="none" stroke="black" points="3108.5,-30 3102.5,-30 "/>
<text text-anchor="middle" x="3025.5" y="-14.3" font-family="Times,serif" font-size="14.00">var.vpn_endpoint_url</text>
</g>
<!-- [root] var.web_url -->
<g id="node20" class="node">
<title>[root] var.web_url</title>
<polygon fill="none" stroke="black" points="3220,-36 3127,-36 3127,0 3226,0 3226,-30 3220,-36"/>
<polyline fill="none" stroke="black" points="3220,-36 3220,-30 "/>
<polyline fill="none" stroke="black" points="3226,-30 3220,-30 "/>
<text text-anchor="middle" x="3176.5" y="-14.3" font-family="Times,serif" font-size="14.00">var.web_url</text>
</g>
<!-- [root] var.zone_id -->
<g id="node21" class="node">
<title>[root] var.zone_id</title>
<polygon fill="none" stroke="black" points="3334.5,-36 3244.5,-36 3244.5,0 3340.5,0 3340.5,-30 3334.5,-36"/>
<polyline fill="none" stroke="black" points="3334.5,-36 3334.5,-30 "/>
<polyline fill="none" stroke="black" points="3340.5,-30 3334.5,-30 "/>
<text text-anchor="middle" x="3292.5" y="-14.3" font-family="Times,serif" font-size="14.00">var.zone_id</text>
</g>
<!-- [root] root -->
<g id="node22" class="node">
<title>[root] root</title>
<ellipse fill="none" stroke="black" cx="1839.5" cy="-90" rx="58.49" ry="18"/>
<text text-anchor="middle" x="1839.5" y="-86.3" font-family="Times,serif" font-size="14.00">[root] root</text>
</g>
<!-- [root] root&#45;&gt;[root] var.allowed_ips -->
<g id="edge1" class="edge">
<title>[root] root&#45;&gt;[root] var.allowed_ips</title>
<path fill="none" stroke="black" d="M1780.74,-88.78C1522.08,-87.58 482.66,-80.12 135.17,-36.03"/>
<polygon fill="black" stroke="black" points="135.46,-32.54 125.09,-34.72 134.55,-39.48 135.46,-32.54"/>
</g>
<!-- [root] root&#45;&gt;[root] var.aws_region -->
<g id="edge2" class="edge">
<title>[root] root&#45;&gt;[root] var.aws_region</title>
<path fill="none" stroke="black" d="M1781.13,-88.59C1536.92,-86.65 595.38,-76.71 276.48,-35.91"/>
<polygon fill="black" stroke="black" points="276.69,-32.41 266.32,-34.58 275.77,-39.35 276.69,-32.41"/>
</g>
<!-- [root] root&#45;&gt;[root] var.desired_instances -->
<g id="edge3" class="edge">
<title>[root] root&#45;&gt;[root] var.desired_instances</title>
<path fill="none" stroke="black" d="M1781.42,-87.85C1556.95,-83.24 745.22,-65 464.88,-36.03"/>
<polygon fill="black" stroke="black" points="465.04,-32.53 454.73,-34.95 464.3,-39.49 465.04,-32.53"/>
</g>
<!-- [root] root&#45;&gt;[root] var.disable_wireguard_dns -->
<g id="edge4" class="edge">
<title>[root] root&#45;&gt;[root] var.disable_wireguard_dns</title>
<path fill="none" stroke="black" d="M1781.21,-88.47C1613.18,-86.49 1113.31,-77.36 688.6,-36.04"/>
<polygon fill="black" stroke="black" points="688.88,-32.55 678.59,-35.06 688.2,-39.52 688.88,-32.55"/>
</g>
<!-- [root] root&#45;&gt;[root] var.docker_image -->
<g id="edge5" class="edge">
<title>[root] root&#45;&gt;[root] var.docker_image</title>
<path fill="none" stroke="black" d="M1781,-89.11C1628.62,-88.7 1206.94,-83.14 848.1,-36.09"/>
<polygon fill="black" stroke="black" points="848.41,-32.6 838.04,-34.76 847.49,-39.54 848.41,-32.6"/>
</g>
<!-- [root] root&#45;&gt;[root] var.enable_cloudwatch_metrics -->
<g id="edge6" class="edge">
<title>[root] root&#45;&gt;[root] var.enable_cloudwatch_metrics</title>
<path fill="none" stroke="black" d="M1782.22,-86.02C1659.94,-79.42 1364.14,-62.12 1105.26,-36.04"/>
<polygon fill="black" stroke="black" points="1105.6,-32.56 1095.29,-35.03 1104.89,-39.52 1105.6,-32.56"/>
</g>
<!-- [root] root&#45;&gt;[root] var.enable_ipv4_nat -->
<g id="edge7" class="edge">
<title>[root] root&#45;&gt;[root] var.enable_ipv4_nat</title>
<path fill="none" stroke="black" d="M1782.55,-85.42C1683.01,-78.76 1470.75,-62.81 1281.72,-36.1"/>
<polygon fill="black" stroke="black" points="1281.99,-32.6 1271.59,-34.65 1281,-39.53 1281.99,-32.6"/>
</g>
<!-- [root] root&#45;&gt;[root] var.enable_ipv6_nat -->
<g id="edge8" class="edge">
<title>[root] root&#45;&gt;[root] var.enable_ipv6_nat</title>
<path fill="none" stroke="black" d="M1786.08,-82.52C1713.89,-73.56 1580.96,-56.36 1457.62,-36.14"/>
<polygon fill="black" stroke="black" points="1458.05,-32.66 1447.62,-34.49 1456.92,-39.57 1458.05,-32.66"/>
</g>
<!-- [root] root&#45;&gt;[root] var.instance_type -->
<g id="edge9" class="edge">
<title>[root] root&#45;&gt;[root] var.instance_type</title>
<path fill="none" stroke="black" d="M1794.14,-78.52C1747.49,-67.74 1673.87,-50.74 1617.25,-37.66"/>
<polygon fill="black" stroke="black" points="1617.78,-34.19 1607.25,-35.34 1616.2,-41.01 1617.78,-34.19"/>
</g>
<!-- [root] root&#45;&gt;[root] var.internal_url -->
<g id="edge10" class="edge">
<title>[root] root&#45;&gt;[root] var.internal_url</title>
<path fill="none" stroke="black" d="M1808.58,-74.67C1787.25,-64.78 1758.53,-51.46 1734.52,-40.33"/>
<polygon fill="black" stroke="black" points="1735.78,-37.06 1725.24,-36.03 1732.84,-43.41 1735.78,-37.06"/>
</g>
<!-- [root] root&#45;&gt;[root] var.ipv4_gateway -->
<g id="edge11" class="edge">
<title>[root] root&#45;&gt;[root] var.ipv4_gateway</title>
<path fill="none" stroke="black" d="M1839.5,-71.7C1839.5,-63.98 1839.5,-54.71 1839.5,-46.11"/>
<polygon fill="black" stroke="black" points="1843,-46.1 1839.5,-36.1 1836,-46.1 1843,-46.1"/>
</g>
<!-- [root] root&#45;&gt;[root] var.ipv6_gateway -->
<g id="edge12" class="edge">
<title>[root] root&#45;&gt;[root] var.ipv6_gateway</title>
<path fill="none" stroke="black" d="M1871.47,-74.83C1893.86,-64.92 1924.17,-51.49 1949.46,-40.29"/>
<polygon fill="black" stroke="black" points="1951.15,-43.36 1958.87,-36.11 1948.31,-36.96 1951.15,-43.36"/>
</g>
<!-- [root] root&#45;&gt;[root] var.is_ecr_docker_image -->
<g id="edge13" class="edge">
<title>[root] root&#45;&gt;[root] var.is_ecr_docker_image</title>
<path fill="none" stroke="black" d="M1886.91,-79.27C1938.61,-68.65 2022.64,-51.41 2087.58,-38.07"/>
<polygon fill="black" stroke="black" points="2088.33,-41.49 2097.42,-36.05 2086.92,-34.64 2088.33,-41.49"/>
</g>
<!-- [root] root&#45;&gt;[root] var.name -->
<g id="edge14" class="edge">
<title>[root] root&#45;&gt;[root] var.name</title>
<path fill="none" stroke="black" d="M1896.7,-86.02C1980.12,-80.84 2139.97,-67.73 2283.62,-35.92"/>
<polygon fill="black" stroke="black" points="2284.51,-39.31 2293.5,-33.7 2282.97,-32.48 2284.51,-39.31"/>
</g>
<!-- [root] root&#45;&gt;[root] var.ssh_key_bucket -->
<g id="edge15" class="edge">
<title>[root] root&#45;&gt;[root] var.ssh_key_bucket</title>
<path fill="none" stroke="black" d="M1896.21,-85.33C1993.73,-78.61 2199.6,-62.67 2383.54,-36.06"/>
<polygon fill="black" stroke="black" points="2384.28,-39.48 2393.67,-34.58 2383.27,-32.56 2384.28,-39.48"/>
</g>
<!-- [root] root&#45;&gt;[root] var.subnet_ids -->
<g id="edge16" class="edge">
<title>[root] root&#45;&gt;[root] var.subnet_ids</title>
<path fill="none" stroke="black" d="M1897.98,-88.06C2019.13,-85.38 2306.33,-75.25 2554.97,-36.09"/>
<polygon fill="black" stroke="black" points="2555.59,-39.54 2564.92,-34.51 2554.49,-32.63 2555.59,-39.54"/>
</g>
<!-- [root] root&#45;&gt;[root] var.tags -->
<g id="edge17" class="edge">
<title>[root] root&#45;&gt;[root] var.tags</title>
<path fill="none" stroke="black" d="M1897.53,-87.6C2060.74,-83.32 2522.37,-68.79 2692.55,-35.75"/>
<polygon fill="black" stroke="black" points="2693.26,-39.18 2702.36,-33.76 2691.87,-32.32 2693.26,-39.18"/>
</g>
<!-- [root] root&#45;&gt;[root] var.volume_size -->
<g id="edge18" class="edge">
<title>[root] root&#45;&gt;[root] var.volume_size</title>
<path fill="none" stroke="black" d="M1897.97,-89.16C2045.39,-88.84 2444.15,-83.4 2784.59,-35.97"/>
<polygon fill="black" stroke="black" points="2785.23,-39.41 2794.64,-34.55 2784.25,-32.48 2785.23,-39.41"/>
</g>
<!-- [root] root&#45;&gt;[root] var.vpn_endpoint_url -->
<g id="edge19" class="edge">
<title>[root] root&#45;&gt;[root] var.vpn_endpoint_url</title>
<path fill="none" stroke="black" d="M1898.13,-88.92C2060.88,-88.12 2532,-81.79 2932.29,-36.04"/>
<polygon fill="black" stroke="black" points="2932.8,-39.51 2942.33,-34.89 2932,-32.55 2932.8,-39.51"/>
</g>
<!-- [root] root&#45;&gt;[root] var.web_url -->
<g id="edge20" class="edge">
<title>[root] root&#45;&gt;[root] var.web_url</title>
<path fill="none" stroke="black" d="M1897.95,-88.43C2112.59,-86.05 2857.88,-75.2 3116.69,-35.82"/>
<polygon fill="black" stroke="black" points="3117.46,-39.24 3126.8,-34.23 3116.37,-32.33 3117.46,-39.24"/>
</g>
<!-- [root] root&#45;&gt;[root] var.zone_id -->
<g id="edge21" class="edge">
<title>[root] root&#45;&gt;[root] var.zone_id</title>
<path fill="none" stroke="black" d="M1898.15,-88.74C2125.76,-87.42 2951.49,-79.77 3234.27,-35.89"/>
<polygon fill="black" stroke="black" points="3235.18,-39.28 3244.5,-34.24 3234.07,-32.37 3235.18,-39.28"/>
</g>
</g>
</svg>
